<svg width="80" height="59" viewBox="0 0 80 59" fill="none" xmlns="http://www.w3.org/2000/svg">
<path fill-rule="evenodd" clip-rule="evenodd" d="M71.3327 1.09728C70.8201 0.404166 69.823 -0.0193274 68.7505 0.000678868C63.9402 0.0905388 53.4301 2.02055 47.0422 8.99062C40.4909 6.32227 33.6533 6.75018 30.959 7.32557C30.0196 7.52622 29.2848 8.06664 29.0116 8.75782C27.9579 11.4277 27.3065 17.9304 33.6624 22.6051C36.6435 24.7978 39.8223 25.7481 42.8063 25.7851C44.7022 25.8086 46.4079 25.4615 47.8079 24.9281C48.5399 25.4194 49.2839 25.8137 49.9787 26.1087C52.1347 27.0241 55.6512 27.7651 59.5283 27.1914C63.5334 26.5988 67.5682 24.6562 70.7104 20.6528C76.9418 12.7141 73.7578 4.37566 71.3327 1.09728ZM44.3857 21.4322C44.2194 21.1544 44.0662 20.866 43.9291 20.5673C42.908 18.3379 42.8514 15.6829 44.3834 12.7138C40.5417 11.1244 36.5372 10.9767 34.1664 11.1527C33.7698 13.4148 34.1675 17.0329 37.7029 19.6331C39.7926 21.1702 41.608 21.5666 42.9028 21.5827C43.4434 21.5893 43.9422 21.5305 44.3857 21.4322ZM50.9856 12.2764C55.2352 6.8621 62.6677 4.82756 67.0739 4.33001C68.691 7.38542 70.0116 13.137 65.7619 18.5513C63.3317 21.6477 60.5957 22.7464 58.4015 23.0711C56.0792 23.4146 53.9678 22.9494 52.8358 22.4688C51.7044 21.9881 50.1004 20.876 49.3445 19.225C48.6296 17.6648 48.5553 15.3728 50.9856 12.2764Z" fill="white"/>
<path fill-rule="evenodd" clip-rule="evenodd" d="M53.3489 34.6135C54.5946 35.222 55.3689 36.0946 55.8512 37.0567C56.8386 39.0279 56.4289 40.9028 54.9815 42.4407C54.9718 42.4512 54.9615 42.4617 54.9518 42.4722C57.2952 41.9367 59.5357 41.2924 61.6482 40.6292C62.8711 40.2455 64.1019 39.8374 65.295 39.4414C67.5436 38.6954 69.6595 37.9931 71.3424 37.5816C72.6441 37.263 74.1806 36.9806 75.6497 37.1172C76.4434 37.1911 77.284 37.3929 78.0423 37.8128C78.8046 38.2352 79.3211 38.7887 79.6485 39.3796C80.3662 40.675 79.8543 41.9788 79.2737 42.8942C78.6554 43.8701 77.6766 44.8608 76.5389 45.8123C74.2475 47.7289 70.9241 49.8077 67.1944 51.7167C63.4505 53.6332 59.1906 55.4342 54.9695 56.7632C50.7935 58.0783 46.4422 59 42.5782 59C39.1657 59.0005 30.603 58.3822 22.2308 57.4849C18.0137 57.033 13.77 56.5022 10.1684 55.9285C6.67642 55.372 3.46006 54.7273 1.52752 53.98C0.588221 53.6169 0 52.9007 0 52.1197V37.7833C0 37.1941 0.336338 36.6322 0.927015 36.2337C1.51769 35.8357 2.30842 35.6386 3.10653 35.6898C21.3146 36.8633 32.9687 35.568 40.4405 34.6265C40.884 34.5706 41.3217 34.5147 41.7514 34.4596C44.7971 34.0696 47.4776 33.7262 49.5267 33.7905C50.789 33.83 52.1409 34.0238 53.3489 34.6135ZM5.7142 40.0576V50.7218C7.0623 51.0635 8.98107 51.4389 11.3781 51.8209C14.8068 52.3669 18.9113 52.8818 23.0547 53.326C31.4035 54.2204 39.6126 54.7975 42.5777 54.7971C45.3342 54.7971 48.8644 54.1141 52.7209 52.8994C56.5317 51.6995 60.454 50.0468 63.9305 48.2673C67.4207 46.4802 70.355 44.6199 72.2481 43.0367C73.0218 42.3894 73.5589 41.8401 73.8932 41.4046C73.6818 41.4454 73.4338 41.4992 73.1464 41.5694C71.7212 41.9183 70.0835 42.4634 68.0756 43.1317C66.8344 43.5448 65.4516 44.005 63.8905 44.4951C56.1586 46.9219 45.4113 49.5807 33.7961 46.9606C32.3801 46.6416 31.531 45.5795 31.8395 44.514C32.1475 43.4486 33.5121 42.7332 34.9818 42.8656C38.956 43.2245 43.7308 42.7836 47.069 41.7195C48.7444 41.1853 49.781 40.5825 50.2833 40.0488C50.6838 39.6226 50.8255 39.1808 50.4895 38.51C50.3958 38.3234 50.3135 38.2238 50.2655 38.1751C50.2233 38.1322 50.1993 38.1204 50.1884 38.115C50.165 38.1036 49.9655 38.0112 49.2833 37.9897C47.8964 37.946 45.9096 38.1982 42.6257 38.6147C42.2377 38.6639 41.8308 38.7156 41.4051 38.7694C34.0852 39.6915 22.8223 40.9432 5.7142 40.0576Z" fill="white"/>
</svg>
